<?xml version="1.0" standalone="no"?>
<!DOCTYPE svg PUBLIC "-//W3C//DTD SVG 20010904//EN"
 "http://www.w3.org/TR/2001/REC-SVG-20010904/DTD/svg10.dtd">
<svg version="1.0" xmlns="http://www.w3.org/2000/svg"
 width="612.000000pt" height="126.000000pt" viewBox="0 0 612.000000 126.000000"
 preserveAspectRatio="xMidYMid meet">

<g transform="translate(0.000000,126.000000) scale(0.100000,-0.100000)"
fill="#000000" stroke="none">
<path d="M0 630 l0 -630 3060 0 3060 0 0 630 0 630 -3060 0 -3060 0 0 -630z
m5661 281 l29 -29 0 -217 c0 -241 -5 -264 -61 -284 -23 -8 -401 -11 -1311 -11
-1406 0 -1332 -3 -1358 59 -7 19 -10 98 -8 245 l3 218 28 24 28 24 1310 0
1311 0 29 -29z m-4705 -12 c36 -11 89 -63 103 -102 6 -16 11 -105 11 -207 l0
-180 -24 -6 c-35 -8 -63 3 -70 29 -3 12 -6 88 -6 169 0 81 -4 158 -10 173 -13
33 -72 59 -118 51 -41 -6 -78 -38 -87 -74 -10 -39 -24 -52 -56 -52 -101 0 -20
188 88 205 21 4 45 8 53 9 19 5 77 -3 116 -15z m292 -17 c9 -12 12 -75 12
-238 0 -189 -2 -225 -16 -238 -18 -19 -55 -21 -72 -4 -13 13 -17 464 -4 484
17 26 57 24 80 -4z m458 -4 c50 -23 60 -42 38 -75 -17 -26 -17 -26 -94 2 -30
11 -60 15 -89 11 -92 -12 -131 -64 -131 -171 0 -115 50 -168 158 -168 63 0
102 24 114 69 15 56 5 64 -81 64 -79 0 -101 9 -101 41 0 38 27 49 120 49 79 0
92 -3 117 -24 24 -21 28 -32 31 -92 4 -88 -22 -138 -88 -172 -39 -20 -56 -23
-130 -19 -62 2 -96 9 -127 25 -159 83 -164 355 -8 452 70 43 190 47 271 8z
m236 8 c4 -6 8 -53 8 -103 l0 -93 125 0 125 0 0 93 c0 50 4 98 9 106 13 20 62
17 78 -5 10 -13 13 -71 13 -238 0 -190 -2 -222 -17 -238 -18 -21 -53 -24 -71
-6 -8 8 -12 47 -12 110 l0 98 -125 0 -125 0 0 -98 c0 -104 -7 -122 -46 -122
-51 0 -54 14 -54 254 0 227 3 247 40 258 18 6 42 -2 52 -16z m836 2 c17 -17
15 -44 -4 -62 -11 -12 -36 -16 -90 -16 l-74 0 0 -198 c0 -209 -3 -222 -46
-222 -47 0 -54 29 -54 232 l0 188 -66 0 c-36 0 -74 5 -85 10 -21 12 -25 50 -7
68 17 17 409 17 426 0z m-2370 -21 c6 -7 12 -84 14 -186 l3 -173 28 -23 c66
-57 160 -35 187 44 17 51 46 67 79 45 49 -35 5 -146 -72 -183 -57 -27 -165
-29 -222 -2 -89 41 -104 84 -105 302 0 115 4 169 12 177 16 16 63 15 76 -1z"/>
<path d="M3715 849 c-69 -20 -124 -107 -125 -194 0 -138 68 -215 191 -215 129
0 211 122 179 265 -26 116 -131 178 -245 144z m135 -37 c74 -40 110 -177 67
-258 -57 -110 -204 -121 -267 -20 -34 57 -38 148 -8 206 43 84 130 113 208 72z"/>
<path d="M4166 845 c-54 -19 -67 -36 -73 -88 -8 -64 17 -86 130 -116 48 -13
97 -31 109 -40 31 -25 28 -75 -5 -109 -23 -22 -35 -26 -86 -27 -70 0 -111 23
-126 73 -11 38 -35 43 -35 8 0 -34 44 -82 86 -96 20 -7 63 -10 95 -8 47 3 65
10 88 32 34 33 44 73 30 116 -13 37 -41 52 -143 78 -85 22 -116 43 -116 78 0
36 10 54 41 69 62 33 161 4 175 -50 7 -29 34 -34 34 -6 0 30 -48 79 -88 91
-48 13 -69 12 -116 -5z"/>
<path d="M3150 650 c0 -171 2 -200 15 -200 12 0 15 17 15 95 l0 95 125 0 125
0 0 -95 c0 -78 3 -95 15 -95 13 0 15 29 15 200 0 171 -2 200 -15 200 -12 0
-15 -17 -15 -90 l0 -90 -125 0 -125 0 0 90 c0 73 -3 90 -15 90 -13 0 -15 -29
-15 -200z"/>
<path d="M4470 835 c0 -12 14 -15 70 -15 l70 0 0 -185 c0 -178 1 -185 20 -185
19 0 20 7 20 185 l0 185 70 0 c56 0 70 3 70 15 0 13 -24 15 -160 15 -136 0
-160 -2 -160 -15z"/>
<path d="M4890 650 l0 -200 140 0 c176 0 190 18 18 22 l-123 3 -3 83 -3 82
116 0 c96 0 115 3 115 15 0 12 -19 15 -115 15 l-115 0 0 75 0 75 125 0 c104 0
125 2 125 15 0 13 -22 15 -140 15 l-140 0 0 -200z"/>
<path d="M5290 650 l0 -200 130 0 c80 0 130 4 130 10 0 6 -45 10 -115 10
l-115 0 0 190 c0 162 -2 190 -15 190 -13 0 -15 -29 -15 -200z"/>
</g>
</svg>
